<svg width="74" height="44" viewBox="0 0 74 44" fill="none" xmlns="http://www.w3.org/2000/svg">
<path fill-rule="evenodd" clip-rule="evenodd" d="M71.2914 5.53442L72.7552 5.73892C73.0345 5.77799 73.2481 6.0241 73.2465 6.30492C73.2427 6.93903 73.1855 7.57665 73.0767 8.20014C72.823 9.6534 72.2333 11.0565 71.3237 12.3705C70.8149 13.1055 70.2207 13.7924 69.5473 14.4247C69.0643 14.8783 68.5405 15.3038 67.9782 15.6991C65.3635 17.5373 62.2234 18.5098 59.0707 18.4695L59.1064 43.4216H55.6504L55.6169 25.0453L46.5064 40.3616H44.8504L35.7424 25.1597V43.4216H32.2864V18.2216H35.2384L45.7453 35.9227L56.1184 18.2216H56.3027C49.6479 17.1692 45.0944 13.018 43.9527 6.82052C43.853 6.27989 43.9592 5.74836 44.2597 5.28351C44.4565 4.97903 44.5121 4.61093 44.4122 4.27358L43.5003 1.1924C43.4146 0.902565 43.576 0.609586 43.8608 0.538267L45.9446 0.0157571C46.0815 -0.0186288 46.2291 0.00377425 46.3549 0.077968C46.4808 0.152091 46.5746 0.27188 46.6158 0.411131L47.5666 3.6233C47.7107 4.11037 48.0486 4.51658 48.4935 4.73795C48.7089 4.84509 48.9167 4.96939 49.1113 5.10742C49.2546 5.20895 49.3622 5.31789 49.4487 5.40545L49.4551 5.41196C49.4856 5.44278 49.5142 5.47171 49.5384 5.49376C49.7628 5.69789 49.9825 5.89919 50.1986 6.0972L50.2068 6.10465C53.2647 8.90638 55.4741 10.9307 59.6171 11.1666C63.7809 11.4037 67.32 9.97042 69.8516 7.02044C70.1932 6.62252 70.5074 6.19932 70.7855 5.76253C70.8928 5.59435 71.0883 5.50609 71.2914 5.53442ZM45.7394 1.19465L44.6873 1.45843L45.298 3.52147L45.9404 3.40296L46.3696 3.32381L45.7394 1.19465ZM58.431 17.3677C62.3411 17.5904 66.1815 16.0736 68.7982 13.6168C70.3433 12.1661 71.4614 10.3877 71.9162 8.4455L71.7603 8.39789C71.1409 9.86352 70.2332 11.1648 69.082 12.246C68.5209 12.7728 67.9024 13.2472 67.2311 13.6634C65.0209 15.0337 62.379 15.6741 59.5909 15.5153C53.877 15.1901 49.4458 12.8023 47.1135 8.79211C46.9603 8.52867 47.0428 8.20125 47.298 8.06084C47.5531 7.92035 47.8841 8.01993 48.0372 8.28333C50.1686 11.9479 54.274 14.1329 59.5974 14.436C63.0163 14.6307 66.1186 13.5185 68.3179 11.4535C69.3189 10.5137 70.1318 9.37634 70.7036 8.07506L70.4998 8.01282L70.4616 8.00118C69.1777 9.42501 67.6507 10.5128 65.9181 11.2374C64.0081 12.0361 61.8859 12.3755 59.6105 12.2459C55.0703 11.9873 52.6132 9.73617 49.5023 6.88591C49.2845 6.68634 49.063 6.48346 48.8367 6.27742C48.7879 6.23298 48.7444 6.18889 48.7022 6.14618L48.7008 6.14479C48.6358 6.07896 48.5796 6.02204 48.5197 5.97965C48.3735 5.87593 48.217 5.7824 48.0546 5.70159C47.4784 5.415 47.0122 4.94238 46.7257 4.36708L45.5369 4.58636C45.5527 5.04785 45.4283 5.50761 45.1726 5.90335C45.065 6.06982 44.9497 6.33916 45.0119 6.67657C46.1692 12.9585 51.1857 16.9551 58.431 17.3677ZM71.8661 7.31629L72.0986 7.38728C72.1238 7.17187 72.1423 6.95545 72.1541 6.73875L71.5225 6.6505C71.4172 6.80614 71.3077 6.95987 71.1947 7.11122L71.8661 7.31629ZM8.064 42.7376C9.72 43.3856 11.508 43.7096 13.428 43.7096C15.348 43.7096 17.112 43.3976 18.72 42.7736C20.352 42.1256 21.768 41.2256 22.968 40.0736C24.192 38.8976 25.128 37.5296 25.776 35.9696C26.448 34.4096 26.784 32.6936 26.784 30.8216C26.784 28.9496 26.448 27.2336 25.776 25.6736C25.128 24.1136 24.192 22.7576 22.968 21.6056C21.768 20.4296 20.352 19.5296 18.72 18.9056C17.112 18.2576 15.348 17.9336 13.428 17.9336C11.484 17.9336 9.696 18.2576 8.064 18.9056C6.432 19.5536 5.016 20.4656 3.816 21.6416C2.616 22.7936 1.68 24.1496 1.008 25.7096C0.336 27.2696 0 28.9736 0 30.8216C0 32.6696 0.336 34.3736 1.008 35.9336C1.68 37.4936 2.616 38.8616 3.816 40.0376C5.016 41.1896 6.432 42.0896 8.064 42.7376ZM17.28 39.7856C16.104 40.2656 14.82 40.5056 13.428 40.5056C12.012 40.5056 10.704 40.2656 9.504 39.7856C8.328 39.3056 7.296 38.6336 6.408 37.7696C5.52 36.8816 4.824 35.8496 4.32 34.6736C3.84 33.4976 3.6 32.2136 3.6 30.8216C3.6 29.4296 3.84 28.1456 4.32 26.9696C4.824 25.7936 5.52 24.7736 6.408 23.9096C7.296 23.0216 8.328 22.3376 9.504 21.8576C10.704 21.3776 12.012 21.1376 13.428 21.1376C14.82 21.1376 16.104 21.3776 17.28 21.8576C18.48 22.3376 19.512 23.0216 20.376 23.9096C21.264 24.7736 21.948 25.7936 22.428 26.9696C22.932 28.1456 23.184 29.4296 23.184 30.8216C23.184 32.2136 22.932 33.4976 22.428 34.6736C21.948 35.8496 21.264 36.8816 20.376 37.7696C19.512 38.6336 18.48 39.3056 17.28 39.7856Z" fill="#FCBB08"/>
</svg>
