<svg width="50" height="32" viewBox="0 0 50 32" fill="none" xmlns="http://www.w3.org/2000/svg">
<path fill-rule="evenodd" clip-rule="evenodd" d="M0.557434 10.5254V21.9679H5.46156V31.7761H7.09576V21.9679H19.6696L31.6087 31.629V0.571533L19.5945 10.5254H0.557434ZM2.19317 20.3321V12.1596H8.73149V20.3321H2.19317ZM20.6369 11.784L29.973 4.04842V28.2027L20.2475 20.3337H10.3642V12.1612H20.1816L20.6354 11.7856L20.6369 11.784ZM42.9209 2.01245L41.745 3.18828C45.5699 6.18226 48.0427 10.8304 48.0427 16.0534C48.0427 21.4159 45.435 26.1698 41.4338 29.1515L42.6173 30.335C46.9082 27.0497 49.6784 21.8758 49.6784 16.0534C49.6784 10.372 47.0386 5.30691 42.9224 2.01245H42.9209ZM36.4807 8.47032L37.6687 7.28223H37.6703C40.4788 9.1939 42.3245 12.4148 42.3245 16.0695C42.3245 19.8652 40.327 23.1858 37.333 25.0652L36.1419 23.8741C38.8538 22.3242 40.6888 19.4099 40.6888 16.0695C40.6888 12.8701 39.004 10.0647 36.4807 8.47032Z" fill="#333333"/>
</svg>
